<svg width="24" height="18" viewBox="0 0 24 18" fill="none" xmlns="http://www.w3.org/2000/svg">
<rect width="24" height="18" rx="2" fill="white"/>
<mask id="mask0" mask-type="alpha" maskUnits="userSpaceOnUse" x="0" y="0" width="24" height="18">
<rect width="24" height="18" rx="2" fill="white"/>
</mask>
<g mask="url(#mask0)">
<path fill-rule="evenodd" clip-rule="evenodd" d="M0 5H24V0H0V5Z" fill="#DD172C"/>
<path fill-rule="evenodd" clip-rule="evenodd" d="M0 18H24V13H0V18Z" fill="#DD172C"/>
<path fill-rule="evenodd" clip-rule="evenodd" d="M0 13H24V5H0V13Z" fill="#FFD133"/>
<path d="M4.05886 8.69435C4.04266 8.50001 4.19602 8.33333 4.39104 8.33333H6.2753C6.47032 8.33333 6.62368 8.50001 6.60749 8.69435L6.43621 10.7497C6.39301 11.268 5.95975 11.6667 5.43966 11.6667H5.22668C4.70659 11.6667 4.27333 11.268 4.23014 10.7497L4.05886 8.69435Z" stroke="#A41517" stroke-width="0.666667"/>
<path fill-rule="evenodd" clip-rule="evenodd" d="M4 9.33325H6.66667V9.99992H6L5.33333 11.3333L4.66667 9.99992H4V9.33325Z" fill="#A41517"/>
<rect x="2" y="7.33325" width="1.33333" height="4.66667" rx="0.666667" fill="#A41517"/>
<rect x="7.3335" y="7.33325" width="1.33333" height="4.66667" rx="0.666667" fill="#A41517"/>
<path d="M4 7.06667C4 6.47756 4.47756 6 5.06667 6H5.6C6.1891 6 6.66667 6.47756 6.66667 7.06667C6.66667 7.21394 6.54728 7.33333 6.4 7.33333H4.26667C4.11939 7.33333 4 7.21394 4 7.06667Z" fill="#A41517"/>
</g>
</svg>
